<svg width="200" height="21" viewBox="0 0 200 21" fill="none" xmlns="http://www.w3.org/2000/svg">
<path d="M5.30682 16H0.598011V1.45455H5.45597C6.88116 1.45455 8.10511 1.74574 9.12784 2.32812C10.1506 2.90578 10.9342 3.73674 11.4787 4.82102C12.0279 5.90057 12.3026 7.19555 12.3026 8.70597C12.3026 10.2211 12.0256 11.5232 11.4716 12.6122C10.9223 13.7012 10.1269 14.5393 9.08523 15.1264C8.04356 15.7088 6.78409 16 5.30682 16ZM2.79261 14.0824H5.18608C6.29403 14.0824 7.21496 13.8741 7.94886 13.4574C8.68277 13.036 9.23201 12.4276 9.59659 11.6321C9.96117 10.8319 10.1435 9.85653 10.1435 8.70597C10.1435 7.56487 9.96117 6.59659 9.59659 5.80114C9.23674 5.00568 8.69934 4.40199 7.98438 3.99006C7.26941 3.57812 6.38163 3.37216 5.32102 3.37216H2.79261V14.0824ZM19.5629 16.2202C18.488 16.2202 17.5624 15.9905 16.7859 15.5312C16.0141 15.0672 15.4175 14.4162 14.9961 13.5781C14.5794 12.7353 14.3711 11.7481 14.3711 10.6165C14.3711 9.49905 14.5794 8.5142 14.9961 7.66193C15.4175 6.80966 16.0046 6.14441 16.7575 5.66619C17.515 5.18797 18.4004 4.94886 19.4137 4.94886C20.0292 4.94886 20.6258 5.05066 21.2035 5.25426C21.7811 5.45786 22.2996 5.77746 22.7589 6.21307C23.2182 6.64867 23.5804 7.21449 23.8455 7.91051C24.1107 8.6018 24.2433 9.44223 24.2433 10.4318V11.1847H15.5714V9.59375H22.1623C22.1623 9.03504 22.0487 8.54025 21.8214 8.10938C21.5941 7.67377 21.2745 7.33049 20.8626 7.07955C20.4554 6.8286 19.9772 6.70312 19.4279 6.70312C18.8313 6.70312 18.3105 6.84991 17.8654 7.14347C17.4251 7.43229 17.0842 7.81108 16.8427 8.27983C16.6059 8.74384 16.4876 9.24811 16.4876 9.79261V11.0355C16.4876 11.7647 16.6154 12.3849 16.8711 12.8963C17.1315 13.4077 17.4937 13.7983 17.9577 14.0682C18.4218 14.3333 18.9639 14.4659 19.5842 14.4659C19.9866 14.4659 20.3536 14.4091 20.685 14.2955C21.0165 14.1771 21.3029 14.0019 21.5444 13.7699C21.7859 13.5379 21.9705 13.2514 22.0984 12.9105L24.1083 13.2727C23.9473 13.8646 23.6585 14.383 23.2418 14.8281C22.8299 15.2685 22.3114 15.6117 21.6864 15.858C21.0662 16.0994 20.3583 16.2202 19.5629 16.2202ZM26.5994 20.0909V5.09091H28.6733V6.85938H28.8509C28.974 6.6321 29.1515 6.36932 29.3835 6.07102C29.6155 5.77273 29.9375 5.51231 30.3494 5.28977C30.7614 5.0625 31.3059 4.94886 31.983 4.94886C32.8636 4.94886 33.6496 5.1714 34.3409 5.61648C35.0322 6.06155 35.5743 6.70312 35.9673 7.54119C36.3651 8.37926 36.5639 9.38778 36.5639 10.5668C36.5639 11.7457 36.3674 12.7566 35.9744 13.5994C35.5814 14.4375 35.0417 15.0838 34.3551 15.5384C33.6686 15.9882 32.8849 16.2131 32.0043 16.2131C31.3414 16.2131 30.7992 16.1018 30.3778 15.8793C29.9612 15.6567 29.6345 15.3963 29.3977 15.098C29.161 14.7997 28.9787 14.5346 28.8509 14.3026H28.723V20.0909H26.5994ZM28.6804 10.5455C28.6804 11.3125 28.7917 11.9848 29.0142 12.5625C29.2367 13.1402 29.5587 13.5923 29.9801 13.919C30.4015 14.241 30.9176 14.402 31.5284 14.402C32.1629 14.402 32.6932 14.2339 33.1193 13.8977C33.5455 13.5568 33.8674 13.0952 34.0852 12.5128C34.3078 11.9304 34.419 11.2746 34.419 10.5455C34.419 9.82576 34.3101 9.17945 34.0923 8.60653C33.8793 8.03362 33.5573 7.58144 33.1264 7.25C32.7003 6.91856 32.1676 6.75284 31.5284 6.75284C30.9129 6.75284 30.392 6.91146 29.9659 7.22869C29.5445 7.54593 29.2249 7.98864 29.0071 8.55682C28.7893 9.125 28.6804 9.78788 28.6804 10.5455ZM42.1179 16.2415C41.4266 16.2415 40.8016 16.1136 40.2429 15.858C39.6842 15.5975 39.2415 15.2211 38.9148 14.7287C38.5928 14.2363 38.4318 13.6326 38.4318 12.9176C38.4318 12.3021 38.5502 11.7955 38.7869 11.3977C39.0237 11 39.3433 10.6851 39.7457 10.4531C40.1482 10.2211 40.598 10.0459 41.0952 9.92756C41.5923 9.80919 42.099 9.71922 42.6151 9.65767C43.2685 9.58191 43.7988 9.52036 44.206 9.47301C44.6132 9.42093 44.9091 9.33807 45.0938 9.22443C45.2784 9.1108 45.3707 8.92614 45.3707 8.67045V8.62074C45.3707 8.00047 45.1955 7.51989 44.8452 7.17898C44.4995 6.83807 43.9834 6.66761 43.2969 6.66761C42.5819 6.66761 42.0185 6.82623 41.6065 7.14347C41.1993 7.45597 40.9176 7.80398 40.7614 8.1875L38.7656 7.73295C39.0024 7.07008 39.348 6.53504 39.8026 6.12784C40.2618 5.71591 40.7898 5.41761 41.3864 5.23295C41.983 5.04356 42.6103 4.94886 43.2685 4.94886C43.7041 4.94886 44.1657 5.00095 44.6534 5.10511C45.1458 5.20455 45.6051 5.3892 46.0312 5.65909C46.4621 5.92898 46.8149 6.31487 47.0895 6.81676C47.3641 7.31392 47.5014 7.96023 47.5014 8.75568V16H45.4276V14.5085H45.3423C45.205 14.7831 44.9991 15.053 44.7244 15.3182C44.4498 15.5833 44.0971 15.8035 43.6662 15.9787C43.2353 16.1539 42.7192 16.2415 42.1179 16.2415ZM42.5795 14.5369C43.1667 14.5369 43.6686 14.4209 44.0852 14.1889C44.5066 13.9569 44.8262 13.6539 45.044 13.2798C45.2666 12.901 45.3778 12.4962 45.3778 12.0653V10.6591C45.3021 10.7348 45.1553 10.8059 44.9375 10.8722C44.7244 10.9337 44.4806 10.9882 44.206 11.0355C43.9313 11.0781 43.6638 11.1184 43.4034 11.1562C43.143 11.1894 42.9252 11.2178 42.75 11.2415C42.3381 11.2936 41.9616 11.3812 41.6207 11.5043C41.2846 11.6274 41.0147 11.8049 40.8111 12.0369C40.6122 12.2642 40.5128 12.5672 40.5128 12.946C40.5128 13.4716 40.7069 13.8693 41.0952 14.1392C41.4834 14.4044 41.9782 14.5369 42.5795 14.5369ZM50.3299 16V5.09091H52.3825V6.82386H52.4961C52.695 6.23674 53.0453 5.77509 53.5472 5.43892C54.0539 5.09801 54.6268 4.92756 55.266 4.92756C55.3986 4.92756 55.5548 4.93229 55.7347 4.94176C55.9194 4.95123 56.0638 4.96307 56.168 4.97727V7.00852C56.0827 6.98485 55.9312 6.95881 55.7134 6.9304C55.4956 6.89725 55.2778 6.88068 55.06 6.88068C54.5581 6.88068 54.1107 6.98722 53.7177 7.20028C53.3294 7.40862 53.0217 7.69981 52.7944 8.07386C52.5671 8.44318 52.4535 8.86458 52.4535 9.33807V16H50.3299ZM63.7425 5.09091V6.79545H57.7837V5.09091H63.7425ZM59.3817 2.47727H61.5053V12.7969C61.5053 13.2088 61.5669 13.5189 61.69 13.7273C61.8131 13.9309 61.9717 14.0705 62.1658 14.1463C62.3647 14.2173 62.5801 14.2528 62.8121 14.2528C62.9826 14.2528 63.1317 14.241 63.2596 14.2173C63.3874 14.1937 63.4869 14.1747 63.5579 14.1605L63.9414 15.9148C63.8183 15.9621 63.6431 16.0095 63.4158 16.0568C63.1886 16.1089 62.9045 16.1373 62.5636 16.142C62.0049 16.1515 61.484 16.0521 61.0011 15.8438C60.5181 15.6354 60.1275 15.3134 59.8292 14.8778C59.5309 14.4422 59.3817 13.8954 59.3817 13.2372V2.47727ZM66.0916 16V5.09091H68.13V6.86648H68.2649C68.4922 6.26515 68.8639 5.7964 69.38 5.46023C69.8961 5.11932 70.514 4.94886 71.2337 4.94886C71.9628 4.94886 72.5736 5.11932 73.0661 5.46023C73.5632 5.80114 73.9302 6.26989 74.1669 6.86648H74.2805C74.541 6.28409 74.9553 5.82008 75.5234 5.47443C76.0916 5.12405 76.7687 4.94886 77.5547 4.94886C78.5443 4.94886 79.3516 5.259 79.9766 5.87926C80.6063 6.49953 80.9212 7.43466 80.9212 8.68466V16H78.7976V8.88352C78.7976 8.14489 78.5964 7.60985 78.1939 7.27841C77.7914 6.94697 77.3108 6.78125 76.7521 6.78125C76.0608 6.78125 75.5234 6.99432 75.1399 7.42045C74.7564 7.84186 74.5646 8.384 74.5646 9.04688V16H72.4482V8.74858C72.4482 8.15672 72.2635 7.68087 71.8942 7.32102C71.5249 6.96117 71.0443 6.78125 70.4524 6.78125C70.05 6.78125 69.6783 6.88778 69.3374 7.10085C69.0012 7.30919 68.7289 7.60038 68.5206 7.97443C68.317 8.34848 68.2152 8.78172 68.2152 9.27415V16H66.0916ZM88.4691 16.2202C87.3943 16.2202 86.4686 15.9905 85.6921 15.5312C84.9203 15.0672 84.3237 14.4162 83.9023 13.5781C83.4857 12.7353 83.2773 11.7481 83.2773 10.6165C83.2773 9.49905 83.4857 8.5142 83.9023 7.66193C84.3237 6.80966 84.9109 6.14441 85.6637 5.66619C86.4213 5.18797 87.3067 4.94886 88.32 4.94886C88.9355 4.94886 89.5321 5.05066 90.1097 5.25426C90.6874 5.45786 91.2058 5.77746 91.6651 6.21307C92.1244 6.64867 92.4866 7.21449 92.7518 7.91051C93.0169 8.6018 93.1495 9.44223 93.1495 10.4318V11.1847H84.4776V9.59375H91.0685C91.0685 9.03504 90.9549 8.54025 90.7276 8.10938C90.5004 7.67377 90.1808 7.33049 89.7688 7.07955C89.3616 6.8286 88.8834 6.70312 88.3342 6.70312C87.7376 6.70312 87.2167 6.84991 86.7717 7.14347C86.3313 7.43229 85.9904 7.81108 85.7489 8.27983C85.5122 8.74384 85.3938 9.24811 85.3938 9.79261V11.0355C85.3938 11.7647 85.5217 12.3849 85.7773 12.8963C86.0378 13.4077 86.4 13.7983 86.864 14.0682C87.328 14.3333 87.8701 14.4659 88.4904 14.4659C88.8929 14.4659 89.2598 14.4091 89.5913 14.2955C89.9227 14.1771 90.2092 14.0019 90.4506 13.7699C90.6921 13.5379 90.8768 13.2514 91.0046 12.9105L93.0146 13.2727C92.8536 13.8646 92.5647 14.383 92.1481 14.8281C91.7362 15.2685 91.2177 15.6117 90.5927 15.858C89.9724 16.0994 89.2646 16.2202 88.4691 16.2202ZM97.6293 9.52273V16H95.5057V5.09091H97.544V6.86648H97.679C97.9299 6.28883 98.3229 5.82481 98.858 5.47443C99.3977 5.12405 100.077 4.94886 100.896 4.94886C101.64 4.94886 102.291 5.10511 102.849 5.41761C103.408 5.72538 103.841 6.18466 104.149 6.79545C104.457 7.40625 104.611 8.16146 104.611 9.06108V16H102.487V9.31676C102.487 8.52604 102.281 7.90814 101.869 7.46307C101.457 7.01326 100.892 6.78835 100.172 6.78835C99.6795 6.78835 99.2415 6.89489 98.858 7.10795C98.4792 7.32102 98.1785 7.63352 97.956 8.04545C97.7382 8.45265 97.6293 8.94508 97.6293 9.52273ZM112.551 5.09091V6.79545H106.592V5.09091H112.551ZM108.19 2.47727H110.314V12.7969C110.314 13.2088 110.375 13.5189 110.499 13.7273C110.622 13.9309 110.78 14.0705 110.974 14.1463C111.173 14.2173 111.389 14.2528 111.621 14.2528C111.791 14.2528 111.94 14.241 112.068 14.2173C112.196 14.1937 112.295 14.1747 112.366 14.1605L112.75 15.9148C112.627 15.9621 112.452 16.0095 112.224 16.0568C111.997 16.1089 111.713 16.1373 111.372 16.142C110.813 16.1515 110.293 16.0521 109.81 15.8438C109.327 15.6354 108.936 15.3134 108.638 14.8778C108.339 14.4422 108.19 13.8954 108.19 13.2372V2.47727ZM124.788 16.2202C123.766 16.2202 122.873 15.9858 122.111 15.517C121.348 15.0483 120.757 14.3925 120.335 13.5497C119.914 12.7069 119.703 11.7221 119.703 10.5952C119.703 9.46354 119.914 8.47396 120.335 7.62642C120.757 6.77888 121.348 6.12074 122.111 5.65199C122.873 5.18324 123.766 4.94886 124.788 4.94886C125.811 4.94886 126.704 5.18324 127.466 5.65199C128.228 6.12074 128.82 6.77888 129.241 7.62642C129.663 8.47396 129.874 9.46354 129.874 10.5952C129.874 11.7221 129.663 12.7069 129.241 13.5497C128.82 14.3925 128.228 15.0483 127.466 15.517C126.704 15.9858 125.811 16.2202 124.788 16.2202ZM124.795 14.4375C125.458 14.4375 126.008 14.2623 126.443 13.9119C126.879 13.5616 127.201 13.0952 127.409 12.5128C127.622 11.9304 127.729 11.2888 127.729 10.5881C127.729 9.89205 127.622 9.25284 127.409 8.67045C127.201 8.08333 126.879 7.61222 126.443 7.2571C126.008 6.90199 125.458 6.72443 124.795 6.72443C124.128 6.72443 123.574 6.90199 123.134 7.2571C122.698 7.61222 122.374 8.08333 122.161 8.67045C121.952 9.25284 121.848 9.89205 121.848 10.5881C121.848 11.2888 121.952 11.9304 122.161 12.5128C122.374 13.0952 122.698 13.5616 123.134 13.9119C123.574 14.2623 124.128 14.4375 124.795 14.4375ZM137.436 5.09091V6.79545H131.271V5.09091H137.436ZM132.961 16V3.8267C132.961 3.14489 133.11 2.57907 133.409 2.12926C133.707 1.67472 134.102 1.33617 134.595 1.11364C135.087 0.886363 135.622 0.772726 136.2 0.772726C136.626 0.772726 136.991 0.808238 137.294 0.879261C137.597 0.945549 137.822 1.0071 137.968 1.06392L137.471 2.78267C137.372 2.75426 137.244 2.72112 137.088 2.68324C136.931 2.64062 136.742 2.61932 136.52 2.61932C136.003 2.61932 135.634 2.74716 135.412 3.00284C135.194 3.25852 135.085 3.62784 135.085 4.1108V16H132.961ZM147.285 1.45455V16H145.09V1.45455H147.285ZM149.763 3.34375V1.45455H161.021V3.34375H156.482V16H154.295V3.34375H149.763ZM172.864 16.206C171.888 16.206 171.048 16.0284 170.342 15.6733C169.642 15.3182 169.102 14.8352 168.723 14.2244C168.344 13.6089 168.155 12.9129 168.155 12.1364C168.155 11.5445 168.278 11.0189 168.524 10.5597C168.77 10.0956 169.114 9.66714 169.554 9.27415C169.994 8.88116 170.503 8.4858 171.081 8.08807L173.425 6.43324C173.822 6.17282 174.133 5.8982 174.355 5.60938C174.578 5.31581 174.689 4.9536 174.689 4.52273C174.689 4.18182 174.542 3.85511 174.249 3.54261C173.955 3.23011 173.562 3.07386 173.07 3.07386C172.729 3.07386 172.428 3.15672 172.168 3.32244C171.912 3.48816 171.711 3.70123 171.564 3.96165C171.422 4.21733 171.351 4.48722 171.351 4.77131C171.351 5.10275 171.441 5.43655 171.621 5.77273C171.805 6.1089 172.042 6.45691 172.331 6.81676C172.62 7.17187 172.923 7.54119 173.24 7.92472L179.994 16H177.594L172.004 9.4304C171.536 8.87642 171.1 8.35559 170.697 7.8679C170.295 7.37547 169.968 6.87831 169.717 6.37642C169.471 5.86979 169.348 5.32292 169.348 4.7358C169.348 4.06818 169.5 3.47633 169.803 2.96023C170.11 2.43939 170.539 2.0322 171.088 1.73864C171.637 1.44508 172.281 1.2983 173.02 1.2983C173.768 1.2983 174.41 1.44508 174.945 1.73864C175.484 2.02746 175.899 2.41335 176.188 2.89631C176.481 3.37453 176.628 3.89773 176.628 4.46591C176.628 5.1572 176.455 5.76799 176.109 6.2983C175.768 6.82386 175.297 7.30682 174.696 7.74716L171.777 9.89915C171.209 10.3158 170.813 10.7277 170.591 11.1349C170.373 11.5374 170.264 11.8523 170.264 12.0795C170.264 12.4962 170.371 12.8821 170.584 13.2372C170.802 13.5923 171.105 13.8764 171.493 14.0895C171.886 14.3026 172.345 14.4091 172.871 14.4091C173.411 14.4091 173.936 14.2931 174.447 14.0611C174.964 13.8243 175.43 13.4858 175.847 13.0455C176.268 12.6051 176.602 12.0772 176.848 11.4616C177.094 10.8461 177.217 10.1572 177.217 9.39489H179.135C179.135 10.3324 179.028 11.1255 178.815 11.7741C178.602 12.4181 178.344 12.9437 178.041 13.3509C177.743 13.7533 177.461 14.0682 177.196 14.2955C177.111 14.3712 177.03 14.447 176.955 14.5227C176.879 14.5985 176.798 14.6742 176.713 14.75C176.221 15.2472 175.624 15.6141 174.923 15.8509C174.227 16.0876 173.541 16.206 172.864 16.206ZM199.202 6.18466H196.987C196.901 5.71117 196.743 5.29451 196.511 4.93466C196.279 4.57481 195.995 4.26941 195.658 4.01847C195.322 3.76752 194.946 3.57812 194.529 3.45028C194.117 3.32244 193.679 3.25852 193.215 3.25852C192.377 3.25852 191.627 3.46922 190.964 3.89062C190.306 4.31203 189.785 4.92992 189.401 5.74432C189.022 6.55871 188.833 7.55303 188.833 8.72727C188.833 9.91098 189.022 10.91 189.401 11.7244C189.785 12.5388 190.308 13.1544 190.971 13.571C191.634 13.9877 192.379 14.196 193.208 14.196C193.667 14.196 194.103 14.1345 194.515 14.0114C194.932 13.8835 195.308 13.6965 195.644 13.4503C195.98 13.2041 196.264 12.9034 196.496 12.5483C196.733 12.1884 196.897 11.7765 196.987 11.3125L199.202 11.3196C199.084 12.0346 198.854 12.6927 198.513 13.294C198.177 13.8906 197.744 14.4067 197.214 14.8423C196.688 15.2732 196.087 15.607 195.41 15.8438C194.733 16.0805 193.994 16.1989 193.194 16.1989C191.934 16.1989 190.812 15.9006 189.827 15.304C188.843 14.7027 188.066 13.8433 187.498 12.7259C186.934 11.6084 186.653 10.2756 186.653 8.72727C186.653 7.17424 186.937 5.84138 187.505 4.72869C188.073 3.61127 188.85 2.75426 189.835 2.15767C190.819 1.55634 191.939 1.25568 193.194 1.25568C193.966 1.25568 194.685 1.36695 195.353 1.58949C196.025 1.80729 196.629 2.12926 197.164 2.5554C197.699 2.9768 198.142 3.4929 198.492 4.10369C198.843 4.70975 199.079 5.40341 199.202 6.18466Z" fill="#263238"/>
</svg>
